<svg width="126" height="36" viewBox="0 0 126 36" fill="none" xmlns="http://www.w3.org/2000/svg">
<path fill-rule="evenodd" clip-rule="evenodd" d="M86.6809 8.04047C86.7451 8.10462 86.8306 8.1367 86.9376 8.1367H89.8245C89.9314 8.1367 90.017 8.10462 90.0811 8.04047C90.1667 7.95493 90.2201 7.85869 90.2415 7.75177L90.5623 5.7865C90.5836 5.67957 90.5623 5.59404 90.4981 5.52988C90.434 5.44434 90.3484 5.40157 90.2415 5.40157H87.3545C87.2476 5.40157 87.1514 5.44434 87.0659 5.52988C87.0017 5.59404 86.9589 5.67957 86.9375 5.7865L86.6168 7.75177C86.5954 7.85869 86.6168 7.95493 86.6809 8.04047ZM36.3365 26.0778C34.6685 26.0778 33.3426 25.618 32.3589 24.6985C31.3966 23.7575 30.9048 22.4958 30.8834 20.9134C30.8406 19.9083 30.8941 18.807 31.0438 17.6094C31.1721 16.476 31.3859 15.3533 31.6853 14.2413C32.113 12.6802 32.9256 11.4506 34.1232 10.5525C35.3421 9.63293 36.7856 9.17316 38.4536 9.17316C40.1002 9.17316 41.4047 9.63293 42.367 10.5525C43.3293 11.4506 43.8318 12.6696 43.8746 14.2093C43.9174 15.2571 43.8639 16.3798 43.7142 17.5773C43.5645 18.7963 43.3507 19.8976 43.0727 20.8813C42.6664 22.4851 41.8538 23.7575 40.6348 24.6985C39.4373 25.618 38.0045 26.0778 36.3365 26.0778ZM36.7535 22.8701C37.4378 22.8701 38.0366 22.6348 38.5498 22.1644C39.063 21.6939 39.4266 21.0737 39.6404 20.3039C39.8757 19.0208 40.0254 18.1227 40.0895 17.6094C40.1537 17.1817 40.2071 16.5188 40.2499 15.6206L40.3141 14.8829C40.2927 14.1344 40.0788 13.5356 39.6725 13.0866C39.2662 12.6161 38.7209 12.3809 38.0366 12.3809C37.3309 12.3809 36.7214 12.6054 36.2082 13.0545C35.695 13.5036 35.3421 14.113 35.1497 14.8829C34.9572 15.6955 34.7968 16.6043 34.6685 17.6094C34.5402 18.8497 34.476 19.7479 34.476 20.3039C34.476 21.0737 34.6792 21.6939 35.0855 22.1644C35.4918 22.6348 36.0478 22.8701 36.7535 22.8701ZM63.1404 9.17316C64.4235 9.17316 65.4072 9.55808 66.0915 10.3279C66.7758 11.0978 67.118 12.1884 67.118 13.5998C67.118 14.0916 67.0966 14.4766 67.0538 14.7546L65.7387 25.4362C65.7173 25.5432 65.6638 25.6394 65.5783 25.7249C65.5141 25.7891 65.4286 25.8212 65.3217 25.8212H62.4989C62.392 25.8212 62.3064 25.7891 62.2423 25.7249C62.1781 25.6394 62.1567 25.5432 62.1781 25.4362L63.4291 15.2678C63.4505 15.1395 63.4612 14.9684 63.4612 14.7546C63.4612 14.0061 63.2901 13.4287 62.948 13.0224C62.6058 12.5947 62.1246 12.3809 61.5045 12.3809C60.7774 12.3809 60.1679 12.6375 59.6761 13.1507C59.1842 13.6639 58.8849 14.3589 58.7779 15.2357L57.5269 25.4362C57.5055 25.5432 57.4521 25.6394 57.3665 25.7249C57.3024 25.7891 57.2169 25.8212 57.1099 25.8212H54.2551C54.1481 25.8212 54.0626 25.7891 53.9984 25.7249C53.9343 25.6394 53.9129 25.5432 53.9343 25.4362L55.1532 15.2678C55.1746 15.1395 55.1853 14.9363 55.1853 14.6583C55.1853 13.9526 55.0142 13.3966 54.6721 12.9903C54.3299 12.584 53.8594 12.3809 53.2607 12.3809C52.5336 12.3809 51.9241 12.6375 51.4323 13.1507C50.9404 13.6639 50.641 14.3589 50.5341 15.2357L49.2831 25.4362C49.2617 25.5432 49.2083 25.6394 49.1227 25.7249C49.0586 25.7891 48.973 25.8212 48.8661 25.8212H46.0433C45.8081 25.8212 45.6905 25.6929 45.6905 25.4362L47.6151 9.8147C47.6365 9.70778 47.6793 9.62224 47.7434 9.55808C47.8289 9.47254 47.9252 9.42978 48.0321 9.42978H50.887C50.9939 9.42978 51.0794 9.47254 51.1436 9.55808C51.2077 9.62224 51.2291 9.70778 51.2077 9.8147L51.1115 10.6166C51.0901 10.6808 51.1008 10.7236 51.1436 10.7449C51.1863 10.7449 51.2291 10.7235 51.2719 10.6808C52.2556 9.6757 53.4745 9.17316 54.9287 9.17316C55.8268 9.17316 56.586 9.37631 57.2062 9.78263C57.8263 10.1675 58.2754 10.7235 58.5534 11.4506C58.6389 11.5576 58.7245 11.5362 58.81 11.3865C59.366 10.6166 60.0182 10.0606 60.7667 9.71847C61.5366 9.35493 62.3278 9.17316 63.1404 9.17316ZM81.2835 10.36C80.5564 9.56877 79.5193 9.17316 78.172 9.17316C76.7179 9.17316 75.5096 9.68639 74.5473 10.7129C74.5046 10.777 74.4618 10.7984 74.419 10.777C74.3762 10.7556 74.3656 10.7129 74.3869 10.6487L74.4832 9.8147C74.5046 9.70778 74.4832 9.62224 74.419 9.55808C74.3549 9.47254 74.2693 9.42978 74.1624 9.42978H71.2755C71.1685 9.42978 71.0723 9.47254 70.9868 9.55808C70.9226 9.62224 70.8798 9.70778 70.8585 9.8147L68.9338 25.4362C68.9338 25.6929 69.0515 25.8212 69.2867 25.8212H72.1415C72.2485 25.8212 72.334 25.7891 72.3982 25.7249C72.4837 25.6394 72.5372 25.5432 72.5585 25.4362L73.8096 15.2678C73.9165 14.391 74.2266 13.696 74.7398 13.1828C75.253 12.6482 75.8839 12.3809 76.6323 12.3809C77.2739 12.3809 77.7657 12.584 78.1079 12.9903C78.4714 13.3966 78.6532 13.9526 78.6532 14.6583C78.6532 14.915 78.6425 15.1074 78.6211 15.2357L77.3701 25.4362C77.3487 25.5432 77.3701 25.6394 77.4343 25.7249C77.4984 25.7891 77.584 25.8212 77.6909 25.8212H80.5778C80.6847 25.8212 80.7703 25.7891 80.8344 25.7249C80.92 25.6394 80.9734 25.5432 80.9948 25.4362L82.31 14.7225C82.3528 14.2093 82.3741 13.8564 82.3741 13.6639C82.3741 12.2526 82.0106 11.1512 81.2835 10.36ZM84.7017 25.8212C84.5948 25.8212 84.5093 25.7891 84.4451 25.7249C84.381 25.6394 84.3596 25.5432 84.381 25.4362L86.3056 9.78263C86.327 9.6757 86.3697 9.59016 86.4339 9.52601C86.5194 9.44047 86.6157 9.3977 86.7226 9.3977H89.6095C89.7165 9.3977 89.802 9.44047 89.8662 9.52601C89.9303 9.59016 89.9517 9.6757 89.9303 9.78263L88.0057 25.4362C87.9843 25.5432 87.9308 25.6394 87.8453 25.7249C87.7811 25.7891 87.6956 25.8212 87.5887 25.8212H84.7017Z" fill="white"/>
<path d="M100.42 31.7472C102.198 32.0941 104.194 31.6066 105.275 30.1522C105.831 29.4037 106.43 28.2703 107.071 26.752L113.968 9.87947C114.01 9.75116 114.01 9.65493 113.968 9.59078C113.925 9.50524 113.839 9.46247 113.711 9.46247L110.696 9.43039C110.503 9.43039 110.354 9.54801 110.247 9.78324L106.397 20.7215C106.376 20.807 106.344 20.8498 106.301 20.8498C106.258 20.8498 106.237 20.807 106.237 20.7215L105.082 9.75116C105.061 9.53732 104.943 9.43039 104.729 9.43039H101.65C101.543 9.43039 101.447 9.47316 101.361 9.5587C101.297 9.62285 101.265 9.70839 101.265 9.81532V9.87947L103.831 25.7576C103.853 25.8432 103.842 25.9073 103.799 25.9501C103.543 26.8269 103.243 27.4898 102.901 27.9389C102.593 28.3911 102.215 28.6951 101.769 28.851C101.851 28.5768 101.892 28.3026 101.892 28.0285C101.892 27.673 101.833 27.3545 101.715 27.0731C101.581 26.7917 101.411 26.5547 101.204 26.3621C100.982 26.1696 100.73 26.0215 100.448 25.9178C100.167 25.8141 99.878 25.7623 99.5818 25.7623C98.8856 25.7623 98.3228 25.9993 97.8933 26.4732C97.4489 26.9472 97.2267 27.5545 97.2267 28.2951C97.2267 28.8135 97.3452 29.3023 97.5822 29.7615C97.8192 30.2206 98.1599 30.6205 98.6042 30.9612C98.8061 31.1227 99.0277 31.2673 99.2693 31.3952C99.6507 31.561 100.041 31.6733 100.42 31.7472Z" fill="white"/>
<path d="M99.477 9.65231C99.4129 9.56677 99.3274 9.524 99.2204 9.524H96.6863C96.558 9.524 96.5153 9.47053 96.558 9.36361L96.6222 8.88246C96.7291 7.9843 96.9643 7.35345 97.3279 6.98991C97.6914 6.60498 98.2474 6.40183 98.9959 6.38044H99.5091C99.616 6.38044 99.7016 6.34836 99.7657 6.28421C99.8513 6.19867 99.9047 6.10244 99.9261 5.99552L100.183 3.7822C100.204 3.67527 100.183 3.58973 100.119 3.52558C100.054 3.44004 99.9689 3.39727 99.862 3.39727H99.2204C97.8732 3.37589 96.7719 3.53627 95.9165 3.87843C95.0825 4.1992 94.4409 4.74451 93.9919 5.51436C93.5428 6.26283 93.2327 7.31068 93.0616 8.65791L92.9654 9.36361L92.5805 12.6355L90.9766 25.5305C90.9766 25.7871 91.0942 25.9154 91.3295 25.9154H94.1523C94.2592 25.9154 94.3447 25.8833 94.4089 25.8192C94.4944 25.7336 94.5479 25.6374 94.5693 25.5305L96.141 12.6355C96.1838 12.5286 96.248 12.4751 96.3335 12.4751H98.8355C98.9424 12.4751 99.0387 12.443 99.1242 12.3789C99.2097 12.2933 99.2525 12.1971 99.2525 12.0902L99.5412 9.90892C99.5626 9.802 99.5412 9.71646 99.477 9.65231Z" fill="white"/>
<mask id="mask0" style="mask-type:alpha" maskUnits="userSpaceOnUse" x="30" y="3" width="84" height="29">
<path fill-rule="evenodd" clip-rule="evenodd" d="M86.6805 8.0401C86.7446 8.10425 86.8301 8.13633 86.9371 8.13633H89.824C89.9309 8.13633 90.0165 8.10425 90.0806 8.0401C90.1662 7.95456 90.2196 7.85833 90.241 7.75141L90.5618 5.78613C90.5832 5.67921 90.5618 5.59367 90.4976 5.52951C90.4335 5.44398 90.3479 5.40121 90.241 5.40121H87.3541C87.2471 5.40121 87.1509 5.44398 87.0654 5.52951C87.0012 5.59367 86.9585 5.67921 86.9371 5.78613L86.6163 7.75141C86.5949 7.85833 86.6163 7.95456 86.6805 8.0401ZM36.336 26.0774C34.668 26.0774 33.3421 25.6176 32.3585 24.6981C31.3961 23.7572 30.9043 22.4955 30.8829 20.913C30.8401 19.9079 30.8936 18.8066 31.0433 17.6091C31.1716 16.4757 31.3854 15.353 31.6848 14.241C32.1125 12.6799 32.9251 11.4503 34.1227 10.5521C35.3416 9.63256 36.7851 9.17279 38.4531 9.17279C40.0997 9.17279 41.4042 9.63256 42.3665 10.5521C43.3288 11.4503 43.8314 12.6692 43.8741 14.2089C43.9169 15.2567 43.8634 16.3794 43.7137 17.577C43.5641 18.7959 43.3502 19.8972 43.0722 20.8809C42.6659 22.4848 41.8533 23.7572 40.6343 24.6981C39.4368 25.6176 38.004 26.0774 36.336 26.0774ZM36.753 22.8697C37.4373 22.8697 38.0361 22.6345 38.5493 22.164C39.0626 21.6935 39.4261 21.0734 39.6399 20.3035C39.8752 19.0204 40.0249 18.1223 40.089 17.6091C40.1532 17.1814 40.2066 16.5184 40.2494 15.6203L40.3136 14.8825C40.2922 14.134 40.0783 13.5353 39.672 13.0862C39.2657 12.6157 38.7204 12.3805 38.0361 12.3805C37.3304 12.3805 36.7209 12.605 36.2077 13.0541C35.6945 13.5032 35.3416 14.1127 35.1492 14.8825C34.9567 15.6951 34.7963 16.604 34.668 17.6091C34.5397 18.8494 34.4755 19.7475 34.4755 20.3035C34.4755 21.0734 34.6787 21.6935 35.085 22.164C35.4913 22.6345 36.0473 22.8697 36.753 22.8697ZM63.1399 9.17279C64.423 9.17279 65.4067 9.55772 66.091 10.3276C66.7753 11.0974 67.1175 12.188 67.1175 13.5994C67.1175 14.0913 67.0961 14.4762 67.0533 14.7542L65.7382 25.4359C65.7168 25.5428 65.6633 25.639 65.5778 25.7246C65.5136 25.7887 65.4281 25.8208 65.3212 25.8208H62.4984C62.3915 25.8208 62.3059 25.7887 62.2418 25.7246C62.1776 25.639 62.1562 25.5428 62.1776 25.4359L63.4286 15.2674C63.45 15.1391 63.4607 14.968 63.4607 14.7542C63.4607 14.0057 63.2896 13.4283 62.9475 13.022C62.6053 12.5943 62.1242 12.3805 61.504 12.3805C60.7769 12.3805 60.1675 12.6371 59.6756 13.1503C59.1838 13.6636 58.8844 14.3586 58.7775 15.2354L57.5264 25.4359C57.5051 25.5428 57.4516 25.639 57.3661 25.7246C57.3019 25.7887 57.2164 25.8208 57.1094 25.8208H54.2546C54.1476 25.8208 54.0621 25.7887 53.998 25.7246C53.9338 25.639 53.9124 25.5428 53.9338 25.4359L55.1527 15.2674C55.1741 15.1391 55.1848 14.936 55.1848 14.658C55.1848 13.9523 55.0137 13.3963 54.6716 12.99C54.3294 12.5836 53.859 12.3805 53.2602 12.3805C52.5331 12.3805 51.9236 12.6371 51.4318 13.1503C50.9399 13.6636 50.6405 14.3586 50.5336 15.2354L49.2826 25.4359C49.2612 25.5428 49.2078 25.639 49.1222 25.7246C49.0581 25.7887 48.9725 25.8208 48.8656 25.8208H46.0428C45.8076 25.8208 45.69 25.6925 45.69 25.4359L47.6146 9.81433C47.636 9.70741 47.6788 9.62187 47.7429 9.55772C47.8285 9.47218 47.9247 9.42941 48.0316 9.42941H50.8865C50.9934 9.42941 51.0789 9.47218 51.1431 9.55772C51.2072 9.62187 51.2286 9.70741 51.2072 9.81433L51.111 10.6163C51.0896 10.6804 51.1003 10.7232 51.1431 10.7446C51.1859 10.7446 51.2286 10.7232 51.2714 10.6804C52.2551 9.67533 53.474 9.17279 54.9282 9.17279C55.8263 9.17279 56.5855 9.37595 57.2057 9.78226C57.8258 10.1672 58.2749 10.7232 58.5529 11.4503C58.6384 11.5572 58.724 11.5358 58.8095 11.3861C59.3655 10.6163 60.0178 10.0603 60.7662 9.7181C61.5361 9.35456 62.3273 9.17279 63.1399 9.17279ZM81.283 10.3596C80.556 9.56841 79.5188 9.17279 78.1716 9.17279C76.7174 9.17279 75.5092 9.68602 74.5469 10.7125C74.5041 10.7766 74.4613 10.798 74.4185 10.7766C74.3758 10.7553 74.3651 10.7125 74.3865 10.6483L74.4827 9.81433C74.5041 9.70741 74.4827 9.62187 74.4185 9.55772C74.3544 9.47218 74.2688 9.42941 74.1619 9.42941H71.275C71.1681 9.42941 71.0718 9.47218 70.9863 9.55772C70.9221 9.62187 70.8794 9.70741 70.858 9.81433L68.9334 25.4359C68.9334 25.6925 69.051 25.8208 69.2862 25.8208H72.1411C72.248 25.8208 72.3335 25.7887 72.3977 25.7246C72.4832 25.639 72.5367 25.5428 72.5581 25.4359L73.8091 15.2674C73.916 14.3907 74.2261 13.6957 74.7393 13.1824C75.2525 12.6478 75.8834 12.3805 76.6319 12.3805C77.2734 12.3805 77.7653 12.5836 78.1074 12.99C78.4709 13.3963 78.6527 13.9523 78.6527 14.658C78.6527 14.9146 78.642 15.107 78.6206 15.2354L77.3696 25.4359C77.3482 25.5428 77.3696 25.639 77.4338 25.7246C77.4979 25.7887 77.5835 25.8208 77.6904 25.8208H80.5773C80.6843 25.8208 80.7698 25.7887 80.834 25.7246C80.9195 25.639 80.973 25.5428 80.9943 25.4359L82.3095 14.7221C82.3523 14.2089 82.3737 13.856 82.3737 13.6636C82.3737 12.2522 82.0101 11.1509 81.283 10.3596ZM84.7012 25.8208C84.5943 25.8208 84.5088 25.7887 84.4446 25.7246C84.3805 25.639 84.3591 25.5428 84.3805 25.4359L86.3051 9.78226C86.3265 9.67534 86.3693 9.58979 86.4334 9.52564C86.519 9.4401 86.6152 9.39733 86.7221 9.39733H89.6091C89.716 9.39733 89.8015 9.4401 89.8657 9.52564C89.9298 9.58979 89.9512 9.67534 89.9298 9.78226L88.0052 25.4359C87.9838 25.5428 87.9304 25.639 87.8448 25.7246C87.7807 25.7887 87.6951 25.8208 87.5882 25.8208H84.7012Z" fill="white"/>
<path d="M100.419 31.7468C102.198 32.0938 104.194 31.6062 105.274 30.1518C105.83 29.4034 106.429 28.27 107.071 26.7517L113.967 9.8791C114.01 9.75079 114.01 9.65456 113.967 9.59041C113.924 9.50487 113.839 9.4621 113.711 9.4621L110.695 9.43002C110.503 9.43002 110.353 9.54764 110.246 9.78287L106.397 20.7211C106.376 20.8067 106.343 20.8495 106.301 20.8495C106.258 20.8495 106.237 20.8067 106.237 20.7211L105.082 9.7508C105.06 9.53695 104.943 9.43002 104.729 9.43002H101.65C101.543 9.43002 101.446 9.47279 101.361 9.55833C101.297 9.62249 101.265 9.70803 101.265 9.81495V9.8791L103.831 25.7573C103.852 25.8428 103.841 25.907 103.799 25.9497C103.542 26.8265 103.243 27.4894 102.901 27.9385C102.592 28.3907 102.215 28.6948 101.768 28.8506C101.851 28.5764 101.892 28.3023 101.892 28.0281C101.892 27.6726 101.833 27.3542 101.714 27.0727C101.581 26.7913 101.411 26.5543 101.203 26.3618C100.981 26.1692 100.729 26.0211 100.448 25.9174C100.166 25.8137 99.8776 25.7619 99.5813 25.7619C98.8852 25.7619 98.3223 25.9989 97.8928 26.4729C97.4484 26.9468 97.2262 27.5541 97.2262 28.2947C97.2262 28.8131 97.3447 29.3019 97.5817 29.7611C97.8187 30.2203 98.1594 30.6202 98.6037 30.9608C98.8056 31.1223 99.0273 31.267 99.2688 31.3948C99.6502 31.5606 100.041 31.6729 100.419 31.7468Z" fill="white"/>
<path d="M99.4766 9.65194C99.4124 9.5664 99.3269 9.52363 99.22 9.52363H96.6859C96.5576 9.52363 96.5148 9.47017 96.5576 9.36324L96.6217 8.88209C96.7286 7.98393 96.9639 7.35308 97.3274 6.98954C97.6909 6.60461 98.247 6.40146 98.9954 6.38008H99.5086C99.6156 6.38008 99.7011 6.348 99.7653 6.28384C99.8508 6.1983 99.9043 6.10207 99.9256 5.99515L100.182 3.78183C100.204 3.67491 100.182 3.58937 100.118 3.52522C100.054 3.43968 99.9684 3.39691 99.8615 3.39691H99.22C97.8727 3.37552 96.7714 3.53591 95.916 3.87806C95.082 4.19883 94.4405 4.74414 93.9914 5.51399C93.5423 6.26246 93.2322 7.31031 93.0612 8.65755L92.9649 9.36324L92.58 12.6351L90.9761 25.5301C90.9761 25.7867 91.0938 25.915 91.329 25.915H94.1518C94.2587 25.915 94.3442 25.8829 94.4084 25.8188C94.4939 25.7333 94.5474 25.637 94.5688 25.5301L96.1406 12.6351C96.1833 12.5282 96.2475 12.4747 96.333 12.4747H98.835C98.942 12.4747 99.0382 12.4426 99.1237 12.3785C99.2093 12.293 99.252 12.1967 99.252 12.0898L99.5407 9.90856C99.5621 9.80163 99.5407 9.71609 99.4766 9.65194Z" fill="white"/>
</mask>
<g mask="url(#mask0)">
<rect x="29.4482" y="6.35669" width="15.0133" height="22.1248" fill="white"/>
<rect x="44.8101" y="6.35669" width="23.5086" height="22.1248" fill="white"/>
<rect x="68.6807" y="6.35669" width="14.9993" height="22.1248" fill="white"/>
<path d="M83.5166 3.39502H100.623V17.7932C100.623 22.5569 96.761 26.4187 91.9973 26.4187H83.5166V3.39502Z" fill="white"/>
<path d="M100.971 3.39502H118.077V24.7708C118.077 29.8477 113.714 33.8266 108.658 33.3598L94.7197 32.0728L97.6004 26.1383L100.971 3.39502Z" fill="white"/>
</g>
<path fill-rule="evenodd" clip-rule="evenodd" d="M15.1643 6.50141C15.2095 6.22273 15.4503 6.01809 15.7326 6.01845L18.5293 6.02204C18.7579 6.02233 18.9316 6.22791 18.8937 6.4534L16.9294 18.1293C16.5649 20.2957 18.235 22.2702 20.4319 22.2702V22.2702C22.1677 22.2702 23.6493 21.0155 23.9351 19.3033L26.0722 6.50234C26.1185 6.2254 26.3579 6.02234 26.6387 6.022L29.3931 6.01863C29.6582 6.0183 29.8609 6.25509 29.8196 6.51702L27.6512 20.2794C27.1314 23.578 24.2887 26.0079 20.9494 26.0079H19.9736C15.7932 26.0079 12.6074 22.2636 13.2768 18.1371L15.1643 6.50141Z" fill="white"/>
</svg>
