<svg width="34" height="34" viewBox="0 0 34 34" fill="none" xmlns="http://www.w3.org/2000/svg">
<circle cx="17" cy="17" r="17" fill="white"/>
<path fill-rule="evenodd" clip-rule="evenodd" d="M12.5411 9.52433C12.5901 9.22217 12.8512 9.00029 13.1573 9.00068L15.2877 9.00341C15.4729 9.00365 15.6135 9.17014 15.5828 9.35275L13.9921 18.8084C13.6969 20.563 15.0494 22.162 16.8286 22.162C18.2343 22.162 19.4342 21.1459 19.6656 19.7593L21.3843 9.465C21.4287 9.1988 21.6589 9.00362 21.9288 9.00329L23.9472 9.00082C24.2347 9.00047 24.4544 9.25721 24.4096 9.54121L22.7269 20.2211C22.2762 23.0817 19.8109 25.1889 16.915 25.1889C13.2896 25.1889 10.5267 21.9418 11.1073 18.3632L12.5411 9.52433Z" fill="#354156"/>
</svg>
